<svg width="274" height="52" viewBox="0 0 274 52" fill="none" xmlns="http://www.w3.org/2000/svg">
<path fill-rule="evenodd" clip-rule="evenodd" d="M19.8878 7.7186C30.252 7.7186 38.6538 15.9946 38.6538 26.2031C38.6538 36.4116 30.252 44.6876 19.8878 44.6876C9.5236 44.6876 1.12176 36.4116 1.12176 26.2031C1.12176 15.9946 9.5236 7.7186 19.8878 7.7186Z" fill="#18128E"/>
<mask id="mask0" mask-type="alpha" maskUnits="userSpaceOnUse" x="1" y="7" width="38" height="38">
<path fill-rule="evenodd" clip-rule="evenodd" d="M19.8878 7.7186C30.252 7.7186 38.6538 15.9946 38.6538 26.2031C38.6538 36.4116 30.252 44.6876 19.8878 44.6876C9.5236 44.6876 1.12176 36.4116 1.12176 26.2031C1.12176 15.9946 9.5236 7.7186 19.8878 7.7186Z" fill="white"/>
</mask>
<g mask="url(#mask0)">
<path fill-rule="evenodd" clip-rule="evenodd" d="M15.2501 -20.33L-3.07719 41.9779L28.079 -23.0005L15.2501 -20.33Z" fill="black"/>
<path fill-rule="evenodd" clip-rule="evenodd" d="M15.2501 -20.33L-3.07719 41.9779L28.079 -23.0005L15.2501 -20.33Z" fill="url(#paint0_linear)"/>
<path fill-rule="evenodd" clip-rule="evenodd" d="M21.6645 -17.6593L3.33708 44.6483L34.4934 -20.3301L21.6645 -17.6593Z" fill="black"/>
<path fill-rule="evenodd" clip-rule="evenodd" d="M21.6645 -17.6593L3.33708 44.6483L34.4934 -20.3301L21.6645 -17.6593Z" fill="url(#paint1_linear)"/>
<path fill-rule="evenodd" clip-rule="evenodd" d="M27.1625 -14.0989L8.83503 48.2087L39.9918 -16.7696L27.1625 -14.0989Z" fill="black"/>
<path fill-rule="evenodd" clip-rule="evenodd" d="M27.1625 -14.0989L8.83503 48.2087L39.9918 -16.7696L27.1625 -14.0989Z" fill="url(#paint2_linear)"/>
<path fill-rule="evenodd" clip-rule="evenodd" d="M33.5773 -9.64854L15.25 52.659L46.4057 -12.319L33.5773 -9.64854Z" fill="black"/>
<path fill-rule="evenodd" clip-rule="evenodd" d="M33.5773 -9.64854L15.25 52.659L46.4057 -12.319L33.5773 -9.64854Z" fill="url(#paint3_linear)"/>
<path fill-rule="evenodd" clip-rule="evenodd" d="M39.992 -6.97841L21.6647 55.3292L52.8209 -9.64857L39.992 -6.97841Z" fill="black"/>
<path fill-rule="evenodd" clip-rule="evenodd" d="M39.992 -6.97841L21.6647 55.3292L52.8209 -9.64857L39.992 -6.97841Z" fill="url(#paint4_linear)"/>
<path fill-rule="evenodd" clip-rule="evenodd" d="M46.4058 -6.08816L28.0791 56.2195L59.2348 -8.75859L46.4058 -6.08816Z" fill="black"/>
<path fill-rule="evenodd" clip-rule="evenodd" d="M46.4058 -6.08816L28.0791 56.2195L59.2348 -8.75859L46.4058 -6.08816Z" fill="url(#paint5_linear)"/>
<path fill-rule="evenodd" clip-rule="evenodd" d="M52.8208 -4.30797L34.4935 57.9997L65.6497 -6.97838L52.8208 -4.30797Z" fill="black"/>
<path fill-rule="evenodd" clip-rule="evenodd" d="M52.8208 -4.30797L34.4935 57.9997L65.6497 -6.97838L52.8208 -4.30797Z" fill="url(#paint6_linear)"/>
</g>
<path d="M53.7986 35L49.6972 27.5556H48.5454V35H43.7417V15.2794H51.8041C53.3585 15.2794 54.6789 15.551 55.7651 16.0941C56.87 16.6372 57.6941 17.3863 58.2372 18.3414C58.7803 19.2778 59.0519 20.3266 59.0519 21.4877C59.0519 22.7987 58.6773 23.9692 57.9282 24.9992C57.1978 26.0293 56.1116 26.7597 54.6695 27.1904L59.2204 35H53.7986ZM48.5454 24.1565H51.5232C52.4034 24.1565 53.0589 23.9411 53.4896 23.5104C53.9391 23.0796 54.1638 22.471 54.1638 21.6844C54.1638 20.9353 53.9391 20.3453 53.4896 19.9146C53.0589 19.4838 52.4034 19.2685 51.5232 19.2685H48.5454V24.1565ZM76.8438 26.9095C76.8438 27.359 76.8157 27.8272 76.7595 28.3141H65.8879C65.9628 29.288 66.2718 30.0371 66.8149 30.5615C67.3767 31.0671 68.0603 31.3199 68.8656 31.3199C70.0642 31.3199 70.8976 30.8143 71.3658 29.803H76.4786C76.2164 30.833 75.7388 31.7601 75.0459 32.5841C74.3717 33.4081 73.5195 34.0542 72.4895 34.5224C71.4595 34.9906 70.3077 35.2247 69.0342 35.2247C67.4985 35.2247 66.1313 34.897 64.9327 34.2415C63.7341 33.586 62.7977 32.6496 62.1235 31.4323C61.4493 30.215 61.1122 28.7917 61.1122 27.1623C61.1122 25.533 61.44 24.1097 62.0954 22.8923C62.7697 21.675 63.7061 20.7386 64.9046 20.0831C66.1032 19.4277 67.4797 19.0999 69.0342 19.0999C70.5511 19.0999 71.8996 19.4183 73.0794 20.055C74.2593 20.6918 75.177 21.6001 75.8324 22.78C76.5066 23.9598 76.8438 25.3363 76.8438 26.9095ZM71.9277 25.6454C71.9277 24.8213 71.6467 24.1658 71.0849 23.6789C70.5231 23.192 69.8208 22.9485 68.978 22.9485C68.1727 22.9485 67.4891 23.1826 66.9273 23.6508C66.3842 24.119 66.0471 24.7839 65.916 25.6454H71.9277ZM78.4228 27.1342C78.4228 25.5236 78.7225 24.1097 79.3218 22.8923C79.9398 21.675 80.7732 20.7386 81.822 20.0831C82.8707 19.4277 84.0412 19.0999 85.3335 19.0999C86.4384 19.0999 87.4029 19.3247 88.2269 19.7741C89.0697 20.2236 89.7158 20.8135 90.1653 21.5439V19.3247H94.969V35H90.1653V32.7807C89.6971 33.5111 89.0416 34.1011 88.1989 34.5505C87.3748 35 86.4103 35.2247 85.3054 35.2247C84.0319 35.2247 82.8707 34.897 81.822 34.2415C80.7732 33.5673 79.9398 32.6215 79.3218 31.4042C78.7225 30.1682 78.4228 28.7448 78.4228 27.1342ZM90.1653 27.1623C90.1653 25.9637 89.8282 25.018 89.154 24.325C88.4985 23.6321 87.6932 23.2856 86.7381 23.2856C85.7829 23.2856 84.9683 23.6321 84.2941 24.325C83.6386 24.9992 83.3108 25.9356 83.3108 27.1342C83.3108 28.3328 83.6386 29.288 84.2941 29.9996C84.9683 30.6926 85.7829 31.039 86.7381 31.039C87.6932 31.039 88.4985 30.6926 89.154 29.9996C89.8282 29.3067 90.1653 28.3609 90.1653 27.1623ZM103.248 14.2119V35H98.4443V14.2119H103.248ZM111.533 19.128V23.1171H117.966V26.8252H111.533V31.1514H118.809V35H106.729V15.2794H118.809V19.128H111.533ZM131.198 35L128.192 30.6457L125.664 35H120.467L125.636 26.9938L120.326 19.3247H125.72L128.726 23.6508L131.254 19.3247H136.451L131.198 27.2185L136.592 35H131.198ZM143.246 21.5439C143.714 20.8135 144.361 20.2236 145.185 19.7741C146.009 19.3247 146.973 19.0999 148.078 19.0999C149.37 19.0999 150.541 19.4277 151.59 20.0831C152.638 20.7386 153.462 21.675 154.062 22.8923C154.68 24.1097 154.989 25.5236 154.989 27.1342C154.989 28.7448 154.68 30.1682 154.062 31.4042C153.462 32.6215 152.638 33.5673 151.59 34.2415C150.541 34.897 149.37 35.2247 148.078 35.2247C146.992 35.2247 146.027 35 145.185 34.5505C144.361 34.1011 143.714 33.5205 143.246 32.8088V42.4725H138.443V19.3247H143.246V21.5439ZM150.101 27.1342C150.101 25.9356 149.764 24.9992 149.089 24.325C148.434 23.6321 147.619 23.2856 146.645 23.2856C145.69 23.2856 144.876 23.6321 144.201 24.325C143.546 25.018 143.218 25.9637 143.218 27.1623C143.218 28.3609 143.546 29.3067 144.201 29.9996C144.876 30.6926 145.69 31.039 146.645 31.039C147.601 31.039 148.415 30.6926 149.089 29.9996C149.764 29.288 150.101 28.3328 150.101 27.1342ZM162.313 14.2119V35H157.509V14.2119H162.313ZM172.929 35.2247C171.393 35.2247 170.008 34.897 168.772 34.2415C167.554 33.586 166.59 32.6496 165.878 31.4323C165.185 30.215 164.839 28.7917 164.839 27.1623C164.839 25.5517 165.195 24.1378 165.906 22.9204C166.618 21.6844 167.592 20.7386 168.828 20.0831C170.064 19.4277 171.45 19.0999 172.985 19.0999C174.521 19.0999 175.907 19.4277 177.143 20.0831C178.379 20.7386 179.353 21.6844 180.065 22.9204C180.776 24.1378 181.132 25.5517 181.132 27.1623C181.132 28.7729 180.767 30.1963 180.036 31.4323C179.325 32.6496 178.342 33.586 177.087 34.2415C175.851 34.897 174.465 35.2247 172.929 35.2247ZM172.929 31.0671C173.847 31.0671 174.624 30.73 175.261 30.0558C175.916 29.3816 176.244 28.4171 176.244 27.1623C176.244 25.9076 175.926 24.9431 175.289 24.2688C174.671 23.5946 173.903 23.2575 172.985 23.2575C172.049 23.2575 171.272 23.5946 170.654 24.2688C170.036 24.9243 169.727 25.8888 169.727 27.1623C169.727 28.4171 170.026 29.3816 170.626 30.0558C171.244 30.73 172.012 31.0671 172.929 31.0671ZM188.484 21.9372C189.046 21.0757 189.748 20.4015 190.591 19.9146C191.434 19.4089 192.37 19.1561 193.4 19.1561V24.2408H192.08C190.881 24.2408 189.983 24.503 189.383 25.0273C188.784 25.533 188.484 26.4319 188.484 27.7242V35H183.681V19.3247H188.484V21.9372ZM210.473 26.9095C210.473 27.359 210.445 27.8272 210.389 28.3141H199.517C199.592 29.288 199.901 30.0371 200.444 30.5615C201.006 31.0671 201.689 31.3199 202.495 31.3199C203.693 31.3199 204.527 30.8143 204.995 29.803H210.108C209.845 30.833 209.368 31.7601 208.675 32.5841C208.001 33.4081 207.149 34.0542 206.119 34.5224C205.089 34.9906 203.937 35.2247 202.663 35.2247C201.128 35.2247 199.76 34.897 198.562 34.2415C197.363 33.586 196.427 32.6496 195.753 31.4323C195.078 30.215 194.741 28.7917 194.741 27.1623C194.741 25.533 195.069 24.1097 195.725 22.8923C196.399 21.675 197.335 20.7386 198.534 20.0831C199.732 19.4277 201.109 19.0999 202.663 19.0999C204.18 19.0999 205.529 19.4183 206.709 20.055C207.888 20.6918 208.806 21.6001 209.462 22.78C210.136 23.9598 210.473 25.3363 210.473 26.9095ZM205.557 25.6454C205.557 24.8213 205.276 24.1658 204.714 23.6789C204.152 23.192 203.45 22.9485 202.607 22.9485C201.802 22.9485 201.118 23.1826 200.556 23.6508C200.013 24.119 199.676 24.7839 199.545 25.6454H205.557ZM217.811 21.9372C218.373 21.0757 219.075 20.4015 219.918 19.9146C220.76 19.4089 221.697 19.1561 222.727 19.1561V24.2408H221.407C220.208 24.2408 219.309 24.503 218.71 25.0273C218.11 25.533 217.811 26.4319 217.811 27.7242V35H213.007V19.3247H217.811V21.9372Z" fill="#00D095"/>
<defs>
<linearGradient id="paint0_linear" x1="-5.12817" y1="43" x2="29.7436" y2="43" gradientUnits="userSpaceOnUse">
<stop stop-color="#10BA9B"/>
<stop offset="1" stop-color="#3152D6"/>
</linearGradient>
<linearGradient id="paint1_linear" x1="2.05127" y1="46" x2="35.8974" y2="46" gradientUnits="userSpaceOnUse">
<stop stop-color="#10BA9B"/>
<stop offset="1" stop-color="#3152D6"/>
</linearGradient>
<linearGradient id="paint2_linear" x1="7.17944" y1="50" x2="41.0256" y2="50" gradientUnits="userSpaceOnUse">
<stop stop-color="#10BA9B"/>
<stop offset="1" stop-color="#3152D6"/>
</linearGradient>
<linearGradient id="paint3_linear" x1="13.3333" y1="54" x2="48.205" y2="54" gradientUnits="userSpaceOnUse">
<stop stop-color="#10BA9B"/>
<stop offset="1" stop-color="#3152D6"/>
</linearGradient>
<linearGradient id="paint4_linear" x1="20.5129" y1="57" x2="54.3591" y2="57" gradientUnits="userSpaceOnUse">
<stop stop-color="#10BA9B"/>
<stop offset="1" stop-color="#3152D6"/>
</linearGradient>
<linearGradient id="paint5_linear" x1="26.6667" y1="58" x2="60.5129" y2="58" gradientUnits="userSpaceOnUse">
<stop stop-color="#10BA9B"/>
<stop offset="1" stop-color="#3152D6"/>
</linearGradient>
<linearGradient id="paint6_linear" x1="32.8206" y1="59" x2="67.6924" y2="59" gradientUnits="userSpaceOnUse">
<stop stop-color="#10BA9B"/>
<stop offset="1" stop-color="#3152D6"/>
</linearGradient>
</defs>
</svg>
